<?xml version="1.0" encoding="utf-8"?>
<!-- Generator: Adobe Illustrator 25.4.1, SVG Export Plug-In . SVG Version: 6.00 Build 0)  -->
<svg version="1.1" id="レイヤー_1" xmlns="http://www.w3.org/2000/svg" xmlns:xlink="http://www.w3.org/1999/xlink" x="0px"
	 y="0px" viewBox="0 0 1020 220" style="enable-background:new 0 0 1020 220;" xml:space="preserve">
<style type="text/css">
	.st0{fill:#69BC82;}
	.st1{fill:#009844;}
	.st2{fill:#231815;}
	.st3{fill:#231815;stroke:#231815;stroke-width:0.2677;}
</style>
<g>
	<g>
		<path class="st0" d="M105.6,116.36c-10.78,6.22-24.55,2.54-30.78-8.24c-6.22-10.77-2.53-24.54,8.25-30.77
			c10.77-6.22,24.55-2.53,30.77,8.26C120.07,96.37,116.37,110.15,105.6,116.36z"/>
		<path class="st0" d="M119.69,11.96c-17.61,0.92-38.19,18.34-50.41,44.54c-15.1,32.4-11.73,65.92,7.53,74.89
			c10.91,5.1,24.59,1.19,37.14-9.01l-0.07,0.14c-27.51,35.4-65.95,51.41-88.24,35.8C2.14,141.88,5.51,96.52,33.17,57.02
			c25.5-36.4,62.71-55.14,86.79-44.97L119.69,11.96z"/>
		<g>
			<path class="st1" d="M181.3,60.57c-8.22-1.44-15.38-6.01-20.16-12.86c-4.8-6.84-6.63-15.13-5.19-23.36
				c0.15-0.86,0.36-1.72,0.59-2.56c-27.5-2.72-63.1,17.08-90.19,51.95l-0.09,0.16c15.69-12.76,32.78-17.62,46.43-11.25
				c24.07,11.22,28.28,53.13,9.41,93.59c-15.27,32.77-41,54.55-63.03,55.7l-0.33-0.13c30.1,12.71,76.62-10.69,108.48-56.19
				c23.07-32.96,32.61-69.14,27.69-95.69C190.52,61.13,185.9,61.38,181.3,60.57z"/>
		</g>
		<path class="st1" d="M182.38,54.46c-6.59-1.17-12.33-4.82-16.16-10.31c-3.85-5.49-5.32-12.13-4.15-18.72
			c1.16-6.59,4.82-12.33,10.3-16.18c11.32-7.91,26.97-5.15,34.88,6.17c3.84,5.48,5.32,12.13,4.16,18.72
			c-1.17,6.59-4.82,12.33-10.3,16.17h0C195.62,54.14,188.97,55.62,182.38,54.46z"/>
		<polygon class="st1" points="204.67,55.38 204.67,55.38 204.67,55.38 		"/>
	</g>
	<g>
		<path class="st2" d="M239.79,24.77c-2.41,2.78-6.66,6.82-7.92,6.82c-1.05,0-1.68-0.94-1.68-1.73c0-0.68,0.47-1.05,0.94-1.36
			c6.29-4.51,11.07-10.86,14.31-17.88c0.32-0.74,0.58-1.15,1.37-1.15c0.74,0,1.47,0.52,1.57,1.26
			C248.49,11.56,245.45,18.27,239.79,24.77z M251.59,54.24c-2.57,0.26-15.68,1.47-18.2,1.47c-0.63,0-1.73,0-1.73-1.52
			c0-0.58,0.26-1.15,1.1-1.26c0.05,0,6.24-0.42,6.61-0.48c4.04-8.18,7.7-16.57,10.43-25.33c0.31-0.89,0.53-1.57,1.68-1.57
			c0.79,0,1.73,0.53,1.73,1.47c0,1-4.93,14.63-10.44,25.17c8.6-0.58,17.25-1.42,25.75-2.99c-2.21-3.31-5.19-7.08-8.29-10.81
			c-0.37-0.42-0.68-0.84-0.68-1.36c0-0.79,0.84-1.42,1.63-1.42c0.15,0,0.42,0,0.84,0.31c0.53,0.42,2.78,2.89,5.61,6.61
			c3.51,4.62,8.33,11.96,8.33,13.22c0,1.15-1.25,1.63-1.83,1.63c-0.79,0-1.1-0.47-1.52-1.26c-0.53-1-1.37-2.57-2.62-4.67
			C263.91,52.83,257.77,53.62,251.59,54.24z M262.23,9.46c0.79,0,1.05,0.47,1.25,0.94c2.15,4.35,6.19,12.06,14.48,18.15
			c0.47,0.36,0.84,0.68,0.84,1.26c0,0.89-0.69,1.78-1.63,1.78c-1.42,0-5.88-4.56-7.61-6.5c-5.67-6.4-9.07-13.37-8.91-14.37
			C260.77,9.93,261.55,9.46,262.23,9.46z"/>
		<path class="st2" d="M302.05,19.79c-2.93,5.98-7.66,10.7-12.74,14.95c-1.1,0.94-3.94,3.3-4.93,3.3c-0.94,0-1.57-0.99-1.57-1.78
			c0-0.63,0.37-0.89,1.15-1.42c6.24-3.83,12.48-10.07,14.79-15.05h-14.68c-0.37,0-1.53,0-1.53-1.26c0-1.31,1.16-1.31,1.53-1.31
			h12.11c-0.57-1.31-1.31-2.67-2.41-4.51c-0.68-1.16-1.1-1.84-1.1-2.26c0-0.89,1.05-1.36,1.73-1.36c0.73,0,1.05,0.42,1.47,1.11
			c0.31,0.52,2.47,4.09,3.72,7.03h14.53c1.41-2.15,3.36-5.77,3.77-6.66c0.31-0.79,0.63-1.42,1.57-1.42c0.79,0,1.73,0.52,1.73,1.36
			c0,1-2.83,5.35-3.72,6.71h12.48c0.37,0,1.52,0,1.52,1.26c0,1.31-1.1,1.31-1.52,1.31H314.9c3.98,6.82,9.02,10.86,13.16,13.32
			c0.37,0.21,2.05,1.15,2.36,1.42c0.42,0.32,0.47,0.68,0.47,0.89c0,0.79-0.57,1.68-1.41,1.68c-1,0-3.99-2.2-5.14-3.09
			c-7.4-5.61-10.07-9.55-12.54-14.21H302.05z M288.73,38.83c0-3.15,1-4.3,4.25-4.3h27.95c3.14,0,4.24,1.1,4.24,4.3V53.2h4.14
			c0.37,0,1.52,0,1.52,1.31c0,1.31-1.16,1.31-1.52,1.31h-44.47c-0.37,0-1.52,0-1.52-1.31c0-1.31,1.1-1.31,1.52-1.31h3.88V38.83z
			 M299.8,53.2V37.1h-6.3c-1.41,0-1.99,0.68-1.99,1.99V53.2H299.8z M311.07,37.1h-8.55v16.1h8.55V37.1z M313.8,53.2h8.6V39.09
			c0-1.26-0.52-1.99-1.99-1.99h-6.61V53.2z"/>
		<path class="st2" d="M343.55,47.64c0,1.15-2.41,4.98-4.67,7.87c-1.15,1.47-1.57,1.73-2.09,1.73c-0.84,0-1.57-0.78-1.57-1.62
			c0-0.47,0.11-0.63,1.52-2.15c0.47-0.52,2.26-2.52,4.09-6.14c0.31-0.58,0.58-1.1,1.46-1C342.71,46.43,343.55,46.8,343.55,47.64z
			 M355.03,40.24c0,3.09-1.05,4.25-4.25,4.25h-8.91c-3.14,0-4.24-1.05-4.24-4.25V15.33c0-3.15,1.05-4.3,4.24-4.3h8.91
			c3.15,0,4.25,1.1,4.25,4.3V40.24z M340.35,21.16h12.11V15.6c0-1.26-0.58-1.99-1.99-1.99h-8.13c-1.42,0-1.99,0.68-1.99,1.99V21.16z
			 M352.46,23.67h-12.11v7.76h12.11V23.67z M340.35,33.95v5.98c0,1.26,0.52,1.99,1.99,1.99h8.13c1.36,0,1.99-0.68,1.99-1.99v-5.98
			H340.35z M355.14,50.32c0.74,0.94,2.62,3.46,2.62,4.19c0,1-0.94,1.52-1.57,1.52c-0.58,0-0.68-0.16-1.52-1.47
			c-1.16-1.84-2.15-3.1-3.99-5.45c-0.63-0.84-0.78-1-0.78-1.47c0-0.73,0.88-1.47,1.67-1.26C352.25,46.54,354.35,49.26,355.14,50.32z
			 M358.39,22.42c-0.42,0-1.53,0-1.53-1.36c0-1.36,1.11-1.36,1.53-1.36h15.89v-9.28c0-0.53,0.05-1.52,1.42-1.52
			c1.42,0,1.46,0.89,1.46,1.52v9.28h4.67c0.42,0,1.52,0,1.52,1.36c0,1.36-1.1,1.36-1.52,1.36h-4.67v29.21c0,4.09-1.41,5.3-5.34,5.3
			h-4.56c-0.79-0.05-1.42-0.73-1.42-1.63c0-1.41,0.94-1.41,1.47-1.41c0.79,0,4.03,0.05,4.72,0.05c1.68-0.16,2.26-1.26,2.26-2.73
			V27.97c-2.36,5.51-5.61,10.6-9.75,14.89c-1.25,1.31-4.61,4.51-5.87,4.51c-0.79,0-1.52-0.94-1.52-1.73c0-0.73,0.47-1.05,0.84-1.31
			c9.54-6.82,13.42-15.16,16.04-21.92H358.39z"/>
		<path class="st2" d="M433.92,49.84c0,4.93-1.63,6.66-6.61,6.66h-30.83c-4.93,0-6.61-1.63-6.61-6.66V18.01
			c0-4.93,1.57-6.66,6.61-6.66h30.83c4.93,0,6.61,1.62,6.61,6.66V49.84z M430.93,17.69c0-2.36-1-3.67-3.67-3.67h-30.73
			c-2.67,0-3.67,1.31-3.67,3.67v32.51c0,2.36,1,3.62,3.67,3.62h30.73c2.67,0,3.67-1.26,3.67-3.62V17.69z M421.12,46.7
			c0,3.41-1.31,4.3-4.4,4.3c-0.58,0-5.09,0-5.3-0.05c-0.79-0.11-1.15-0.94-1.15-1.63c0-1.41,0.94-1.41,1.42-1.41
			c0.36,0,4.45,0.15,4.56,0.15c1.26,0,2.1-0.42,2.1-1.99v-19.4h-21.97c-0.37,0-1.47,0-1.47-1.31c0-1.36,1.1-1.36,1.47-1.36h21.97
			v-6.29c0-0.42,0-1.52,1.36-1.52c1.42,0,1.42,1.1,1.42,1.52v6.29h6.03c0.37,0,1.52,0,1.52,1.31c0,1.36-1.1,1.36-1.52,1.36h-6.03
			V46.7z M405.86,36.57c2.62,3.72,3.2,4.46,3.2,5.3c0,0.84-1.1,1.42-1.78,1.42c-0.53,0-0.68-0.21-1.89-2.1
			c-1.89-2.99-4.61-6.4-5.35-7.24c-1.1-1.36-1.15-1.42-1.15-1.84c0-0.79,0.94-1.52,1.73-1.36
			C401.56,30.96,404.81,35.21,405.86,36.57z"/>
		<path class="st2" d="M441.38,23.46c1.05,0,4.41,2.3,5.66,3.14c2.99,2.05,2.99,2.36,2.99,2.88c0,0.68-0.68,1.73-1.58,1.73
			c-0.47,0-0.84-0.26-2.2-1.42c-1.36-1.1-2.83-2.1-5.45-3.67c-0.53-0.27-0.95-0.58-0.79-1.42
			C440.18,24.09,440.65,23.46,441.38,23.46z M446.37,50.68c-1.05,1.89-2.15,3.78-3.51,5.4c-0.27,0.37-0.63,0.68-1.11,0.68
			c-0.84,0-1.73-0.79-1.73-1.63c0-0.52,0.32-0.94,0.68-1.42c1.52-1.89,5.46-7.92,8.07-13.79c0.16-0.37,1.26-2.83,1.41-2.99
			c0.21-0.32,0.53-0.42,0.84-0.42c0.73,0,1.52,0.68,1.52,1.26C452.55,38.93,449.41,45.44,446.37,50.68z M443.69,10.04
			c0.89,0,4.56,2.36,5.66,3.09c3.46,2.31,3.46,2.41,3.46,3.04c0,0.79-0.73,1.68-1.52,1.68c-0.37,0-0.63-0.21-2.47-1.47
			c-1.89-1.31-3.72-2.51-5.72-3.67c-0.47-0.27-1-0.58-0.84-1.42C442.43,10.67,442.95,10.04,443.69,10.04z M454.6,34.32
			c-0.37,0-1.47,0-1.47-1.31c0-1.36,1.1-1.36,1.47-1.36h14.42V20.37h-12.12c-0.42,0-1.52,0-1.52-1.31c0-1.36,1.1-1.36,1.52-1.36
			h12.12V10.3c0-0.48,0-1.47,1.46-1.47c1.42,0,1.47,0.89,1.47,1.47v7.39h13.21c0.42,0,1.53,0,1.53,1.36c0,1.31-1.1,1.31-1.53,1.31
			h-13.21v11.27h14.89c0.53,0,1.47,0.05,1.47,1.31c0,1.31-0.84,1.36-1.47,1.36h-18.56c-2.41,6.19-5.19,12.17-8.34,17.99
			c4.93-0.16,17.09-0.89,21.71-1.63c-1.94-2.99-3.56-5.51-5.81-8.23c-0.43-0.47-0.58-0.73-0.58-1.15c0-0.73,0.89-1.31,1.41-1.31
			c0.58,0,0.84,0.26,2.47,2.15c2.68,3.15,5.25,7.23,7.4,11.06c0.84,1.47,1.21,2.21,1.21,2.68c0,0.79-0.94,1.47-1.63,1.47
			c-0.79,0-1.04-0.58-1.26-0.94c-0.63-1.21-1.21-2.36-1.88-3.57c-8.13,1.47-28.06,2.57-28.32,2.57c-0.68,0-1.73,0-1.73-1.58
			c0-0.94,0.63-1.21,0.89-1.26c0.21-0.05,0.46-0.05,2.88-0.16c4.46-8.13,6.4-12.69,8.55-18.09H454.6z"/>
		<path class="st2" d="M515.18,10.67c0-0.31,0-1.57,1.58-1.57c1.62,0,1.62,1.21,1.62,1.57v4.93c0,12.43,3.51,21.92,8.13,27.63
			c3.2,4.04,7.28,7.19,11.22,9.54c0.37,0.26,2.2,1.21,2.57,1.47c0.42,0.26,0.63,0.63,0.63,1.05c0,0.37-0.31,1.89-1.73,1.89
			c-1.1,0-6.24-3.35-10.38-7.13c-3.04-2.78-6.61-6.55-9.59-14.42c-1.58-4.19-2.1-7.29-2.42-9.33c-1.16,6.98-3.57,13.79-7.92,19.35
			c-4.4,5.61-13.11,11.54-14.52,11.54c-1.05,0-1.73-1.05-1.73-1.94c0-0.63,0.47-0.94,1.05-1.26c12.16-6.4,17.56-14.79,20.28-26.33
			c0.79-3.36,1.21-8.55,1.21-12.06V10.67z"/>
	</g>
	<g>
		<path class="st3" d="M315.39,97.08c6.9,0,9.28,2.37,9.28,9.16v22.51c0,6.68-2.27,9.16-9.28,9.16h-26.7
			c7.02,7.69,18.55,18.67,42.08,27.83c1.47,0.57,2.26,1.13,2.26,2.6c0,1.25-0.91,3.73-3.17,3.73c-2.83,0-31.91-13.01-46.27-32.24
			v32.7c0,1.36-0.11,3.17-3.05,3.17c-2.83,0-3.16-1.47-3.16-3.17v-32.47c-15.05,19.12-42.77,31.68-45.6,31.68
			c-1.92,0-3.28-1.92-3.28-3.73c0-1.58,1.13-2.15,2.38-2.6c15.61-6,29.87-15.16,41.18-27.49h-25.79c-6.9,0-9.16-2.38-9.16-9.16
			v-22.51c0-6.68,2.14-9.16,9.16-9.16h31.12v-9.28h-46.28c-0.79,0-3.16,0-3.16-2.83c0-2.72,2.14-2.83,3.16-2.83h46.28v-7.81
			c0-0.9,0-3.17,2.94-3.17c2.49,0,3.28,0.91,3.28,3.17v7.81h46.84c0.9,0,3.28,0,3.28,2.83c0,2.83-2.38,2.83-3.28,2.83H283.6v9.28
			H315.39z M277.38,114.73v-12.11h-30.1c-2.94,0-4.3,1.36-4.3,4.3v7.81H277.38z M277.38,120.05h-34.4v8.15c0,2.83,1.25,4.3,4.3,4.3
			h30.1V120.05z M283.6,114.73h34.84v-7.81c0-2.71-1.13-4.3-4.3-4.3H283.6V114.73z M283.6,120.05v12.44h30.55
			c3.05,0,4.3-1.47,4.3-4.3v-8.15H283.6z"/>
		<path class="st3" d="M443.93,81.7c1.02,0,3.28,0,3.28,2.83c0,2.83-2.15,2.94-3.28,2.94h-99.68c-0.9,0-3.28,0-3.28-2.94
			c0-2.83,2.38-2.83,3.28-2.83h46.27v-7.36c0-0.9,0-3.39,3.05-3.39c2.61,0,3.4,1.13,3.4,3.39v7.36H443.93z M370.95,143.81
			c0,5.21-20.25,26.7-25,26.7c-1.92,0-3.62-1.47-3.62-3.73c0-1.36,0.56-1.7,5.09-5.2c9.95-7.7,14.48-14.6,16.86-18.33
			c1.13-1.81,1.58-2.49,3.17-2.49C368.01,140.75,370.95,141.32,370.95,143.81z M396.97,162.93c0,3.17-0.12,7.58-3.73,9.84
			c-2.49,1.47-4.3,1.47-12.55,1.47c-2.38,0-6,0-6.79-0.23c-1.35-0.34-2.04-2.15-2.04-3.39c0-3.05,2.38-3.05,3.85-3.05
			c1.36,0,7.47,0.23,8.71,0.23c2.95,0,6.23-0.57,6.23-6v-29.41h-23.98c-8.37,0-11.42-2.72-11.42-11.43v-11.43
			c0-8.48,2.94-11.42,11.42-11.42h54.87c8.37,0,11.42,2.72,11.42,11.42v11.43c0,8.48-2.94,11.43-11.42,11.43h-24.55V162.93z
			 M426.62,109.64c0-3.96-1.81-5.88-5.89-5.88h-53.51c-4.07,0-5.88,1.92-5.88,5.88v11.09c0,3.96,1.81,5.88,5.88,5.88h53.51
			c4.07,0,5.89-1.92,5.89-5.88V109.64z M421.41,142.22c3.85,5.32,11.2,14.48,22.4,21.38c1.02,0.68,1.92,1.24,1.92,2.49
			c0,1.92-1.58,3.85-3.28,3.85c-4.98,0-27.72-22.17-27.72-26.58c0-2.26,2.72-3.05,3.62-3.05
			C419.83,140.3,420.39,140.87,421.41,142.22z"/>
		<path class="st3" d="M512.04,106.93c0.67,0,3.28,0.11,3.28,2.72c0,2.83-2.6,2.83-3.28,2.83H493.6c-2.15,2.04-6.9,6.9-14.48,12.33
			h20.02c6.79,0,9.16,2.38,9.16,9.28v29.98c0,6.67-2.26,9.16-9.16,9.16h-23.76c-6.79,0-9.16-2.38-9.16-9.16v-30.77
			c-2.04,1.13-7.01,3.96-8.6,3.96c-1.58,0-2.82-1.59-2.82-3.05c0-1.58,1.24-2.38,2.49-2.94c5.77-2.72,18.56-9.73,28.39-18.78H458.3
			c-0.79,0-3.17,0-3.17-2.72c0-2.72,2.38-2.72,3.17-2.83h20.82V89.62h-16.97c-1.13,0-3.17-0.34-3.17-2.72
			c0-2.26,1.81-2.72,3.17-2.72h16.97v-9.73c0-1.02,0-3.28,2.94-3.28c2.6,0,3.17,1.36,3.17,3.28v9.73h14.26
			c0.56,0,3.17,0.11,3.17,2.72c0,2.26-1.92,2.72-3.17,2.72h-14.26v17.31h5.88c11.77-12.78,16.18-22.06,18.78-28.17
			c0.45-1.13,1.02-2.38,2.83-2.38c1.59,0,3.28,1.02,3.28,2.94c0,1.47-6.23,14.93-17.31,27.6H512.04z M472.21,145.62h30.21v-11.08
			c0-2.6-1.13-4.3-4.3-4.3h-21.61c-3.05,0-4.3,1.47-4.3,4.3V145.62z M472.21,150.71v12.78c0,2.72,1.13,4.3,4.3,4.3h21.61
			c2.94,0,4.3-1.47,4.3-4.3v-12.78H472.21z M525.84,172.88c0,1.02,0,3.17-2.95,3.17c-2.82,0-3.05-1.81-3.05-3.17v-88.7
			c0-6.67,2.15-9.16,9.16-9.16h17.09c4.64,0,5.77,0,7.58,1.02c1.92,1.02,2.72,3.05,2.72,4.75c0,5.88-7.13,19.23-10.75,25.91
			c-2.94,5.54-3.05,5.77-3.05,7.01c0,1.36,0.34,2.26,3.17,4.64c3.39,2.83,13.01,11.99,13.01,25.91c0,4.41-1.02,11.2-6.34,15.05
			c-4.52,3.28-9.62,3.28-12.1,3.28h-6c-2.04,0-2.83-2.26-2.83-3.4c0-3.17,2.15-3.17,3.51-3.17c0.56,0,6.22,0.11,7.35,0.11
			c2.72,0,4.75,0,6.67-2.04c2.94-3.17,3.39-7.69,3.39-10.07c0-11.2-7.35-18.22-10.86-21.61c-4.41-4.18-5.54-5.32-5.54-7.81
			c0-1.92,0.22-2.26,3.39-8.37c3.39-6.56,9.95-20.14,9.95-23.19c0-2.49-2.04-2.6-4.52-2.6h-14.71c-2.94,0-4.3,1.59-4.3,4.41V172.88z
			"/>
		<path class="st3" d="M597.36,100.36h16.86c0.79,0,3.28,0,3.28,2.83c0,2.94-2.48,2.94-3.28,2.94h-16.86v1.13
			c3.62,7.58,9.05,15.5,16.18,23.87c0.8,0.9,1.13,1.47,1.13,2.15c0,1.7-1.47,3.51-3.17,3.51c-1.24,0-2.04-0.9-3.28-2.6
			c-3.85-5.43-7.69-10.86-10.86-16.63v55.32c0,1.13-0.12,3.17-3.05,3.17c-2.49,0-2.94-1.47-2.94-3.17v-53.96
			c-5.21,12.67-12.34,22.85-15.05,26.47c-3.17,4.3-3.73,4.75-4.98,4.75c-2.15,0-3.51-2.26-3.51-3.85c0-1.13,0.45-1.81,1.47-2.94
			c12.67-13.69,17.65-25.57,21.5-37.22h-19.23c-0.79,0-3.16,0-3.16-2.83c0-2.94,2.37-2.94,3.16-2.94h19.8V82.04
			c-5.09,0.79-13.81,1.81-18.67,1.81c-2.94,0-3.29-2.04-3.29-3.05c0-2.6,1.81-2.6,2.94-2.72c10.75-0.57,19.12-1.02,31-4.3
			c1.36-0.34,7.47-2.38,8.15-2.38c1.47,0,2.72,1.25,2.72,3.05c0,1.47-0.68,2.15-2.15,2.72c-2.83,1.02-6.79,2.15-14.71,3.85V100.36z
			 M661.5,156.93c-4.76-14.82-8.03-21.84-12.9-32.13c-0.56-1.13-0.79-1.7-0.79-2.49c0-1.59,1.81-2.83,3.62-2.83
			c1.7,0,2.15,0.68,5.21,7.01c8.48,17.76,15.61,42.42,15.61,45.71c0,3.17-3.51,3.17-3.62,3.17c-1.8,0-2.38-1.02-2.72-2.03
			c-0.46-1.59-2.38-9.28-2.83-10.98c-12.45,1.81-24.89,3.51-37.33,4.98c-1.47,0.23-16.63,1.81-16.97,1.81
			c-2.72,0-3.05-2.72-3.05-3.51c0-2.72,1.13-2.83,8.6-3.62c5.09-16.63,7.23-23.87,11.31-43.78c4.75-22.85,5.77-30.77,7.58-43.9
			c0.22-1.81,0.79-3.51,3.39-3.51c0.34,0,3.4,0,3.4,3.05c0,4.86-9.39,59.28-18.78,87.57C634.57,160.32,651.21,158.17,661.5,156.93z"
			/>
		<path class="st3" d="M782.11,136.11c0.9,0,3.28,0,3.28,2.94c0,2.38-1.47,2.94-3.28,2.94h-44.35v20.7c0,9.5-3.84,11.43-11.99,11.43
			c-1.7,0-14.83,0-15.39-0.23c-1.13-0.45-1.92-2.04-1.92-3.73c0-3.05,2.14-3.05,3.16-3.05c0.46,0,13.13,0.23,13.58,0.23
			c2.61,0,6.33-0.23,6.33-5.88V142h-46.95c-0.79,0-3.28,0-3.28-2.94c0-2.94,2.49-2.94,3.28-2.94h46.95v-6.79
			c0-0.79,0-3.28,2.95-3.28c0.79,0,1.13,0.11,1.58,0.23c5.21-2.38,9.96-5.32,13.47-7.7c1.02-0.68,5.32-3.51,5.32-4.41
			c0-1.24-0.68-1.24-2.83-1.24h-49.66c-0.91,0-3.17,0-3.17-2.83c0-2.83,2.26-2.83,3.17-2.83h52.83c3.51,0,3.96,0,4.86,0.34
			c1.47,0.57,3.28,2.04,3.28,4.75c0,3.51-2.49,5.77-11.09,11.31c-2.38,1.59-6.45,4.07-14.48,8.26v4.18H782.11z M771.37,89.62
			c8.26,0,11.31,2.72,11.31,11.31v9.84c0,1.36-0.11,3.17-3.28,3.17c-3.16,0-3.28-1.81-3.28-3.17v-9.84c0-4.07-1.81-5.88-5.88-5.88
			h-73.08c-4.07,0-5.89,1.92-5.89,5.88v9.96c0,1.47-0.22,3.17-3.05,3.17c-2.37,0-3.39-0.79-3.39-3.17v-9.96
			c0-8.37,2.83-11.31,11.43-11.31h60.41c2.6-3.85,4.19-6.79,7.24-13.12c2.6-5.09,2.72-5.54,4.52-5.54c1.13,0,3.39,1.02,3.39,3.05
			c0,2.37-6.9,13.69-8.15,15.61H771.37z M707.89,84.75c0,1.92-2.03,2.94-3.62,2.94c-1.46,0-1.7-0.34-3.5-3.73
			c-1.59-3.05-2.61-4.53-4.64-7.81c-0.79-1.02-1.02-1.7-1.02-2.38c0-2.04,2.72-3.05,4.07-2.71
			C701.44,71.63,707.89,83.28,707.89,84.75z M733.47,75.14c1.02,1.7,4.3,7.24,4.3,8.6c0,2.15-2.38,2.94-3.39,2.94
			c-1.58,0-1.92-0.45-3.73-3.73c-1.24-2.15-3.17-5.54-4.41-7.69c-0.67-1.02-1.02-1.7-1.02-2.49c0-1.24,1.24-2.6,2.94-2.83
			C730.18,69.7,730.87,70.72,733.47,75.14z"/>
		<path class="st3" d="M812.45,154.22c0,2.49-5.21,10.75-10.07,16.97c-2.49,3.17-3.39,3.73-4.52,3.73c-1.81,0-3.39-1.69-3.39-3.51
			c0-1.02,0.23-1.36,3.28-4.64c1.02-1.13,4.87-5.43,8.83-13.24c0.68-1.25,1.24-2.38,3.17-2.15
			C810.63,151.61,812.45,152.41,812.45,154.22z M837.22,138.26c0,6.67-2.27,9.16-9.16,9.16h-19.24c-6.78,0-9.16-2.26-9.16-9.16
			V84.53c0-6.79,2.27-9.28,9.16-9.28h19.24c6.78,0,9.16,2.38,9.16,9.28V138.26z M805.54,97.08h26.14V85.09c0-2.72-1.25-4.3-4.3-4.3
			h-17.54c-3.05,0-4.3,1.47-4.3,4.3V97.08z M831.68,102.51h-26.14v16.75h26.14V102.51z M805.54,124.69v12.9c0,2.72,1.13,4.3,4.3,4.3
			h17.54c2.94,0,4.3-1.47,4.3-4.3v-12.9H805.54z M837.45,159.99c1.58,2.04,5.65,7.47,5.65,9.05c0,2.15-2.04,3.28-3.39,3.28
			c-1.24,0-1.46-0.34-3.28-3.17c-2.49-3.96-4.64-6.67-8.6-11.77c-1.36-1.81-1.7-2.15-1.7-3.17c0-1.58,1.93-3.17,3.62-2.71
			C831.22,151.84,835.75,157.72,837.45,159.99z M844.46,99.8c-0.9,0-3.28,0-3.28-2.94c0-2.94,2.38-2.94,3.28-2.94h34.28V73.89
			c0-1.13,0.11-3.28,3.05-3.28c3.05,0,3.17,1.92,3.17,3.28v20.02h10.07c0.9,0,3.28,0,3.28,2.94c0,2.94-2.38,2.94-3.28,2.94h-10.07
			v63.01c0,8.83-3.05,11.43-11.54,11.43h-9.85c-1.7-0.11-3.05-1.59-3.05-3.51c0-3.05,2.04-3.05,3.17-3.05
			c1.7,0,8.72,0.11,10.18,0.11c3.63-0.34,4.87-2.72,4.87-5.88v-50.12c-5.09,11.88-12.11,22.85-21.04,32.13
			c-2.72,2.83-9.96,9.73-12.67,9.73c-1.69,0-3.28-2.04-3.28-3.73c0-1.58,1.02-2.26,1.81-2.83c20.59-14.71,28.96-32.7,34.61-47.29
			H844.46z"/>
		<path class="st3" d="M1007.38,158.97c0,10.64-3.51,14.37-14.26,14.37H926.6c-10.63,0-14.26-3.51-14.26-14.37V90.3
			c0-10.63,3.4-14.37,14.26-14.37h66.52c10.64,0,14.26,3.51,14.26,14.37V158.97z M1000.93,89.62c0-5.09-2.15-7.92-7.92-7.92h-66.3
			c-5.77,0-7.91,2.83-7.91,7.92v70.14c0,5.09,2.15,7.81,7.91,7.81h66.3c5.77,0,7.92-2.72,7.92-7.81V89.62z M979.78,152.18
			c0,7.36-2.83,9.28-9.51,9.28c-1.24,0-10.97,0-11.42-0.11c-1.69-0.23-2.48-2.04-2.48-3.51c0-3.05,2.04-3.05,3.05-3.05
			c0.79,0,9.61,0.34,9.83,0.34c2.72,0,4.53-0.91,4.53-4.3v-41.86h-47.4c-0.79,0-3.16,0-3.16-2.83c0-2.94,2.37-2.94,3.16-2.94h47.4
			V89.62c0-0.9,0-3.28,2.95-3.28c3.05,0,3.05,2.38,3.05,3.28v13.58h13.01c0.79,0,3.28,0,3.28,2.83c0,2.94-2.38,2.94-3.28,2.94
			h-13.01V152.18z M946.86,130.35c5.65,8.03,6.9,9.62,6.9,11.42c0,1.81-2.38,3.05-3.84,3.05c-1.13,0-1.47-0.45-4.07-4.52
			c-4.07-6.45-9.96-13.8-11.54-15.61c-2.38-2.94-2.49-3.05-2.49-3.96c0-1.7,2.04-3.28,3.73-2.94
			C937.58,118.24,944.6,127.4,946.86,130.35z"/>
	</g>
	<g>
		<path class="st2" d="M238.66,212.12c0.12,0.52,0.28,0.7,0.61,0.7c0.2,0,0.41-0.09,0.55-0.7l5.25-21.12
			c0.25-1.04,1.1-1.74,2.2-1.74c1.92,0,2.06,1.8,2.06,2.26v22.07c0,0.61-0.44,1.04-0.91,1.04c-0.5,0-0.93-0.4-0.93-1.04v-21.98
			c0-0.15,0-0.55-0.41-0.55c-0.25,0-0.41,0.21-0.47,0.49l-5.36,21.55c-0.11,0.43-0.55,1.53-1.96,1.53c-0.61,0-1.73-0.18-2.06-1.5
			l-5.36-21.58c-0.06-0.27-0.25-0.49-0.5-0.49c-0.3,0-0.38,0.31-0.38,0.55v21.98c0,0.64-0.46,1.04-0.9,1.04
			c-0.53,0-0.94-0.46-0.94-1.04v-22.07c0-0.43,0.16-2.26,2.04-2.26c0.38,0,1.34,0.09,1.81,0.92c0.14,0.21,0.36,0.64,0.41,0.83
			L238.66,212.12z"/>
		<path class="st2" d="M267.51,200.69c0.5,0,0.85,0.43,0.85,0.89c0,0.46-0.3,0.92-0.85,0.92h-10.73v7.76c0,1.32,0.55,1.92,1.74,1.92
			h10.56c0.5,0,0.83,0.43,0.83,0.89c0,0.46-0.31,0.92-0.83,0.92h-10.62c-2.7,0-3.52-1.01-3.52-3.91v-16.26
			c0-2.99,0.91-3.91,3.52-3.91h10.29c0.5,0,0.83,0.43,0.83,0.89c0,0.46-0.3,0.92-0.83,0.92h-10.23c-1.19,0-1.74,0.61-1.74,1.92v7.06
			H267.51z"/>
		<path class="st2" d="M273.62,191.71c-0.52,0-0.82-0.43-0.82-0.89c0-0.49,0.3-0.92,0.82-0.92h14.42c0.49,0,0.83,0.43,0.83,0.89
			c0,0.46-0.28,0.92-0.83,0.92h-6.27v21.88c0,0.64-0.47,1.04-0.94,1.04c-0.52,0-0.93-0.46-0.93-1.04v-21.88H273.62z"/>
		<path class="st2" d="M294.35,213.59c0,0.67-0.47,1.07-0.91,1.07c-0.52,0-0.94-0.46-0.94-1.07v-19.74c0-3.03,0.91-3.91,3.52-3.91
			h5.94c5.81,0,6.52,4.68,6.52,6.48c0,1.4-0.36,3.09-1.9,4.58c-0.44,0.43-0.79,0.58-1.46,0.92c2.09,1.38,2.62,2.69,2.75,8.1
			c0,0.49,0.11,1.68,0.3,2.54c0.03,0.18,0.25,0.95,0.25,1.13c0,0.49-0.33,0.98-0.91,0.98c-0.36,0-1.21,0-1.46-3.61
			c-0.03-0.52-0.12-2.87-0.17-3.33c-0.21-2.35-0.58-2.97-1.02-3.55c-0.85-1.13-2.14-1.25-2.53-1.25h-8V213.59z M294.35,201.12h7.21
			c3.55,0,5.06-2.69,5.06-4.89c0-1.22-0.5-2.9-1.76-3.73c-1.15-0.77-3.05-0.77-3.32-0.77h-5.45c-1.18,0-1.73,0.61-1.73,1.9V201.12z"
			/>
		<path class="st2" d="M332.68,201.94c0,5.2-2.53,12.68-10.2,12.68c-7.59,0-10.21-7.4-10.21-12.68c0-5.07,2.47-12.68,10.21-12.68
			C330.25,189.26,332.68,196.93,332.68,201.94z M316.56,193.97c-1.68,2.32-2.45,5.35-2.45,7.98c0,4.04,1.92,10.88,8.37,10.88
			c6.55,0,8.36-7.03,8.36-10.88c0-3.91-1.84-10.88-8.36-10.88C320.8,191.06,318.16,191.71,316.56,193.97z"/>
		<path class="st2" d="M339.24,213.59c0,0.64-0.46,1.04-0.91,1.04c-0.52,0-0.94-0.46-0.94-1.04v-19.78c0-2.99,0.91-3.91,3.52-3.91
			h5.12c5.14,0,6.82,3.67,6.82,6.94c0,3.09-1.59,6.88-6.82,6.88h-6.8V213.59z M339.24,201.88h6.46c3.77,0,5.31-2.66,5.31-5.07
			c0-2.45-1.57-5.1-5.31-5.1h-4.73c-1.18,0-1.73,0.61-1.73,1.92V201.88z"/>
		<path class="st2" d="M376.85,201.94c0,5.2-2.53,12.68-10.2,12.68c-7.59,0-10.21-7.4-10.21-12.68c0-5.07,2.48-12.68,10.21-12.68
			C374.43,189.26,376.85,196.93,376.85,201.94z M360.73,193.97c-1.68,2.32-2.45,5.35-2.45,7.98c0,4.04,1.92,10.88,8.36,10.88
			c6.55,0,8.36-7.03,8.36-10.88c0-3.91-1.84-10.88-8.36-10.88C364.97,191.06,362.33,191.71,360.73,193.97z"/>
		<path class="st2" d="M383.41,210.26c0,1.32,0.55,1.92,1.73,1.92h8.53c0.49,0,0.82,0.46,0.82,0.89c0,0.49-0.33,0.92-0.82,0.92
			h-8.58c-2.7,0-3.52-1.01-3.52-3.91V190.3c0-0.61,0.44-1.04,0.91-1.04c0.5,0,0.93,0.4,0.93,1.04V210.26z"/>
		<path class="st2" d="M400.31,213.59c0,0.64-0.47,1.04-0.91,1.04c-0.52,0-0.94-0.46-0.94-1.04V190.3c0-0.61,0.44-1.04,0.91-1.04
			c0.49,0,0.93,0.4,0.93,1.04V213.59z"/>
		<path class="st2" d="M404.87,191.71c-0.52,0-0.83-0.43-0.83-0.89c0-0.49,0.3-0.92,0.83-0.92h14.41c0.5,0,0.82,0.43,0.82,0.89
			c0,0.46-0.27,0.92-0.82,0.92h-6.27v21.88c0,0.64-0.46,1.04-0.94,1.04c-0.52,0-0.93-0.46-0.93-1.04v-21.88H404.87z"/>
		<path class="st2" d="M421.31,213.96c-0.11,0.34-0.44,0.67-0.88,0.67c-0.54,0-0.9-0.55-0.9-1.01c0-0.18,0.03-0.3,0.05-0.43
			l7.45-22.37c0.03-0.09,0.25-0.58,0.55-0.92c0.5-0.52,1.24-0.64,1.73-0.64c0.3,0,1.32,0.06,1.79,0.64c0.11,0.15,0.47,0.7,0.55,0.92
			l7.42,22.37c0.06,0.12,0.08,0.24,0.08,0.4c0,0.52-0.35,1.04-0.96,1.04c-0.44,0-0.75-0.43-0.83-0.67l-2.48-7.46h-11.11
			L421.31,213.96z M424.39,204.7h9.9l-4.32-12.99c-0.14-0.46-0.36-0.64-0.63-0.64c-0.27,0-0.49,0.19-0.66,0.64L424.39,204.7z"/>
		<path class="st2" d="M457.26,212.27c0.17,0.34,0.3,0.55,0.55,0.55c0.38,0,0.44-0.4,0.44-0.64V190.3c0-0.64,0.46-1.04,0.91-1.04
			c0.52,0,0.93,0.46,0.93,1.04v21.92c0,0.46,0,2.41-2.03,2.41c-0.66,0-1.57-0.15-2.23-1.5l-10.04-21.52
			c-0.17-0.34-0.3-0.55-0.58-0.55c-0.36,0-0.41,0.4-0.41,0.64v21.88c0,0.64-0.47,1.04-0.91,1.04c-0.52,0-0.93-0.46-0.93-1.04v-21.92
			c0-0.46,0-2.41,2.03-2.41c0.66,0,1.57,0.15,2.23,1.5L457.26,212.27z"/>
		<path class="st2" d="M486.87,200.97c0.5,0,0.83,0.43,0.83,0.92c0,0.43-0.3,0.89-0.83,0.89h-10.48v10.82
			c0,0.64-0.47,1.04-0.91,1.04c-0.52,0-0.93-0.46-0.93-1.04v-19.78c0-2.99,0.91-3.91,3.52-3.91h10.1c0.5,0,0.83,0.43,0.83,0.89
			c0,0.46-0.28,0.92-0.83,0.92h-10.04c-1.18,0-1.73,0.61-1.73,1.92v7.34H486.87z"/>
		<path class="st2" d="M512.3,201.94c0,5.2-2.53,12.68-10.21,12.68c-7.59,0-10.2-7.4-10.2-12.68c0-5.07,2.47-12.68,10.2-12.68
			C509.88,189.26,512.3,196.93,512.3,201.94z M496.18,193.97c-1.68,2.32-2.45,5.35-2.45,7.98c0,4.04,1.92,10.88,8.36,10.88
			c6.55,0,8.37-7.03,8.37-10.88c0-3.91-1.84-10.88-8.37-10.88C500.41,191.06,497.77,191.71,496.18,193.97z"/>
		<path class="st2" d="M518.76,205.49c0,2.54,0.41,3.85,1.32,4.98c1.56,1.99,3.82,2.35,5.41,2.35c3.17,0,5.23-1.56,6.11-3.51
			c0.58-1.28,0.61-3.39,0.61-3.82V190.3c0-0.61,0.44-1.04,0.91-1.04c0.47,0,0.93,0.4,0.93,1.04v14.85c0,2.63-0.28,3.82-0.77,4.92
			c-1.55,3.48-4.54,4.55-7.62,4.55c-2.23,0-6.14-0.34-8.01-4.55c-0.38-0.89-0.74-2.02-0.74-4.92V190.3c0-0.61,0.44-1.04,0.9-1.04
			c0.5,0,0.94,0.4,0.94,1.04V205.49z"/>
		<path class="st2" d="M553.91,212.27c0.17,0.34,0.3,0.55,0.55,0.55c0.38,0,0.44-0.4,0.44-0.64V190.3c0-0.64,0.47-1.04,0.91-1.04
			c0.52,0,0.93,0.46,0.93,1.04v21.92c0,0.46,0,2.41-2.03,2.41c-0.66,0-1.57-0.15-2.23-1.5l-10.04-21.52
			c-0.16-0.34-0.3-0.55-0.57-0.55c-0.36,0-0.42,0.4-0.42,0.64v21.88c0,0.64-0.47,1.04-0.91,1.04c-0.52,0-0.93-0.46-0.93-1.04v-21.92
			c0-0.46,0-2.41,2.04-2.41c0.66,0,1.56,0.15,2.22,1.5L553.91,212.27z"/>
		<path class="st2" d="M571.51,189.9c5.25,0,8.86,4.28,8.86,12.11c0,5.07-1.7,8.43-3.47,10.02c-1.51,1.34-3.76,1.96-5.39,1.96h-5.64
			c-2.69,0-3.52-1.01-3.52-3.91v-16.26c0-2.99,0.91-3.91,3.52-3.91H571.51z M565.92,191.71c-1.18,0-1.73,0.61-1.73,1.92v16.63
			c0,1.32,0.55,1.92,1.73,1.92h5.39c1.6,0,3.36-0.73,4.46-1.83c1.43-1.44,2.75-4.56,2.75-8.37c0-4.95-2.09-10.27-7.21-10.27H565.92z
			"/>
		<path class="st2" d="M584.37,213.96c-0.12,0.34-0.44,0.67-0.88,0.67c-0.55,0-0.91-0.55-0.91-1.01c0-0.18,0.04-0.3,0.06-0.43
			l7.45-22.37c0.03-0.09,0.25-0.58,0.55-0.92c0.5-0.52,1.23-0.64,1.73-0.64c0.3,0,1.32,0.06,1.79,0.64c0.11,0.15,0.47,0.7,0.55,0.92
			l7.42,22.37c0.05,0.12,0.08,0.24,0.08,0.4c0,0.52-0.36,1.04-0.96,1.04c-0.45,0-0.75-0.43-0.83-0.67l-2.48-7.46h-11.11
			L584.37,213.96z M587.45,204.7h9.9l-4.32-12.99c-0.14-0.46-0.36-0.64-0.63-0.64c-0.28,0-0.5,0.19-0.66,0.64L587.45,204.7z"/>
		<path class="st2" d="M602.47,191.71c-0.52,0-0.83-0.43-0.83-0.89c0-0.49,0.3-0.92,0.83-0.92h14.42c0.5,0,0.83,0.43,0.83,0.89
			c0,0.46-0.28,0.92-0.83,0.92h-6.27v21.88c0,0.64-0.47,1.04-0.94,1.04c-0.52,0-0.93-0.46-0.93-1.04v-21.88H602.47z"/>
		<path class="st2" d="M623.34,213.59c0,0.64-0.47,1.04-0.91,1.04c-0.52,0-0.93-0.46-0.93-1.04V190.3c0-0.61,0.44-1.04,0.91-1.04
			c0.49,0,0.94,0.4,0.94,1.04V213.59z"/>
		<path class="st2" d="M648.4,201.94c0,5.2-2.53,12.68-10.2,12.68c-7.6,0-10.21-7.4-10.21-12.68c0-5.07,2.48-12.68,10.21-12.68
			C645.99,189.26,648.4,196.93,648.4,201.94z M632.29,193.97c-1.68,2.32-2.45,5.35-2.45,7.98c0,4.04,1.92,10.88,8.36,10.88
			c6.55,0,8.36-7.03,8.36-10.88c0-3.91-1.84-10.88-8.36-10.88C636.52,191.06,633.88,191.71,632.29,193.97z"/>
		<path class="st2" d="M667.43,212.27c0.17,0.34,0.3,0.55,0.55,0.55c0.38,0,0.44-0.4,0.44-0.64V190.3c0-0.64,0.46-1.04,0.91-1.04
			c0.52,0,0.94,0.46,0.94,1.04v21.92c0,0.46,0,2.41-2.04,2.41c-0.66,0-1.57-0.15-2.23-1.5l-10.04-21.52
			c-0.17-0.34-0.3-0.55-0.58-0.55c-0.36,0-0.41,0.4-0.41,0.64v21.88c0,0.64-0.46,1.04-0.91,1.04c-0.52,0-0.93-0.46-0.93-1.04v-21.92
			c0-0.46,0-2.41,2.04-2.41c0.66,0,1.56,0.15,2.22,1.5L667.43,212.27z"/>
		<path class="st2" d="M686.31,193.57c0-1.92,0.49-3.09,1.68-3.73c0.68-0.4,1.59-0.58,2.36-0.58c0.25,0,1.04,0,1.04,0.92
			c0,0.79-0.52,0.83-0.9,0.86c-2.45,0.15-2.45,1.59-2.45,2.35v2.87h2.53c0.53,0,0.82,0.43,0.82,0.89s-0.29,0.89-0.82,0.89h-2.53
			v15.62c0,0.61-0.47,0.98-0.88,0.98c-0.44,0-0.85-0.37-0.85-0.98v-15.62h-2.56c-0.49,0-0.82-0.43-0.82-0.89
			c0-0.43,0.3-0.89,0.82-0.89h2.56V193.57z"/>
		<path class="st2" d="M707.26,205.12c0,5.38-2.53,9.51-7.26,9.51c-4.76,0-7.29-4.13-7.29-9.51c0-5.32,2.47-9.5,7.29-9.5
			C704.81,195.62,707.26,199.81,707.26,205.12z M694.44,205.12c0,5.96,3.16,7.73,5.56,7.73c2.33,0,5.53-1.74,5.53-7.73
			c0-5.53-2.78-7.73-5.53-7.73C697.13,197.39,694.44,199.68,694.44,205.12z"/>
		<path class="st2" d="M712.62,213.65c0,0.61-0.47,0.98-0.88,0.98c-0.44,0-0.86-0.37-0.86-0.98V196.6c0-0.61,0.44-0.98,0.86-0.98
			c0.44,0,0.88,0.37,0.88,0.98v2.72c1.56-2.17,3.82-3.7,6.32-3.7c1.04,0,1.13,0.73,1.13,0.98c0,0.43-0.21,1.04-1.35,1.07
			c-3.41,0.09-6.1,3.03-6.1,5.65V213.65z"/>
		<path class="st2" d="M735.21,213.59c0,0.64-0.47,1.04-0.91,1.04c-0.52,0-0.94-0.46-0.94-1.04v-19.78c0-2.99,0.91-3.91,3.52-3.91
			H742c5.15,0,6.82,3.67,6.82,6.94c0,3.09-1.59,6.88-6.82,6.88h-6.79V213.59z M735.21,201.88h6.46c3.77,0,5.31-2.66,5.31-5.07
			c0-2.45-1.57-5.1-5.31-5.1h-4.73c-1.18,0-1.73,0.61-1.73,1.92V201.88z"/>
		<path class="st2" d="M754.9,213.59c0,0.67-0.47,1.07-0.91,1.07c-0.52,0-0.94-0.46-0.94-1.07v-19.74c0-3.03,0.91-3.91,3.52-3.91
			h5.94c5.81,0,6.52,4.68,6.52,6.48c0,1.4-0.35,3.09-1.9,4.58c-0.44,0.43-0.79,0.58-1.46,0.92c2.09,1.38,2.62,2.69,2.75,8.1
			c0,0.49,0.11,1.68,0.3,2.54c0.03,0.18,0.25,0.95,0.25,1.13c0,0.49-0.33,0.98-0.91,0.98c-0.36,0-1.21,0-1.46-3.61
			c-0.04-0.52-0.12-2.87-0.17-3.33c-0.21-2.35-0.58-2.97-1.02-3.55c-0.85-1.13-2.14-1.25-2.53-1.25h-8V213.59z M754.9,201.12h7.21
			c3.55,0,5.06-2.69,5.06-4.89c0-1.22-0.49-2.9-1.76-3.73c-1.15-0.77-3.05-0.77-3.32-0.77h-5.45c-1.18,0-1.73,0.61-1.73,1.9V201.12z
			"/>
		<path class="st2" d="M775.76,213.59c0,0.64-0.46,1.04-0.91,1.04c-0.52,0-0.93-0.46-0.93-1.04V190.3c0-0.61,0.44-1.04,0.91-1.04
			c0.5,0,0.94,0.4,0.94,1.04V213.59z"/>
		<path class="st2" d="M787.77,212.31c0.12,0.37,0.3,0.52,0.53,0.52c0.27,0,0.44-0.31,0.49-0.52l6.52-22.34
			c0.08-0.31,0.38-0.7,0.86-0.7c0.52,0,0.93,0.49,0.93,1.01c0,0.18-0.03,0.27-0.05,0.4l-6.52,22.34c-0.38,1.25-1.27,1.62-2.14,1.62
			c-0.66,0-1.87-0.09-2.31-1.62l-6.52-22.34c-0.03-0.12-0.05-0.21-0.05-0.37c0-0.58,0.38-1.04,0.94-1.04c0.46,0,0.77,0.46,0.85,0.7
			L787.77,212.31z"/>
		<path class="st2" d="M799.33,213.96c-0.11,0.34-0.44,0.67-0.88,0.67c-0.54,0-0.9-0.55-0.9-1.01c0-0.18,0.03-0.3,0.05-0.43
			l7.45-22.37c0.03-0.09,0.25-0.58,0.55-0.92c0.5-0.52,1.24-0.64,1.73-0.64c0.3,0,1.32,0.06,1.79,0.64c0.11,0.15,0.47,0.7,0.55,0.92
			l7.42,22.37c0.06,0.12,0.09,0.24,0.09,0.4c0,0.52-0.36,1.04-0.96,1.04c-0.44,0-0.75-0.43-0.83-0.67l-2.48-7.46h-11.11
			L799.33,213.96z M802.41,204.7h9.9L808,191.71c-0.13-0.46-0.36-0.64-0.63-0.64c-0.27,0-0.49,0.19-0.66,0.64L802.41,204.7z"/>
		<path class="st2" d="M817.44,191.71c-0.53,0-0.82-0.43-0.82-0.89c0-0.49,0.29-0.92,0.82-0.92h14.41c0.5,0,0.83,0.43,0.83,0.89
			c0,0.46-0.28,0.92-0.83,0.92h-6.27v21.88c0,0.64-0.47,1.04-0.93,1.04c-0.53,0-0.94-0.46-0.94-1.04v-21.88H817.44z"/>
		<path class="st2" d="M848.89,200.69c0.49,0,0.85,0.43,0.85,0.89c0,0.46-0.3,0.92-0.85,0.92h-10.73v7.76
			c0,1.32,0.55,1.92,1.73,1.92h10.56c0.5,0,0.83,0.43,0.83,0.89c0,0.46-0.3,0.92-0.83,0.92h-10.62c-2.69,0-3.52-1.01-3.52-3.91
			v-16.26c0-2.99,0.91-3.91,3.52-3.91h10.29c0.5,0,0.83,0.43,0.83,0.89c0,0.46-0.3,0.92-0.83,0.92h-10.24
			c-1.18,0-1.73,0.61-1.73,1.92v7.06H848.89z"/>
		<path class="st2" d="M879.07,196.11c0,0.98-0.61,1.16-0.91,1.16c-0.88,0-0.93-0.89-0.96-1.34c-0.28-4.22-3.28-4.86-5.61-4.86
			c-1.43,0-3.36,0.21-4.57,1.41c-0.41,0.43-1.18,1.31-1.18,3.05c0,3.03,2.25,3.76,6.3,4.96c5.33,1.62,7.65,3.21,7.65,7.09
			c0,4.65-3.88,7.06-8.03,7.06c-2.8,0-5.69-0.95-7.23-3.54c-1.02-1.68-1.08-3.61-1.08-3.79c0-0.98,0.67-1.16,0.94-1.16
			c0.91,0,0.93,0.86,0.96,1.5c0.19,4.37,4.51,5.2,6.27,5.2c3.11,0,6.32-1.84,6.32-5.2c0-3.15-2.72-4-5.91-4.98
			c-5.23-1.65-8.04-2.66-8.04-6.85c0-3.15,1.98-6.54,7.43-6.54C879.07,189.26,879.07,195.89,879.07,196.11z"/>
		<path class="st2" d="M901.69,194.31c0.13,0.36,0.46,1.34,0.46,2.2c0,0.7-0.44,1.1-0.93,1.1c-0.8,0-0.88-0.61-1.02-1.56
			c-0.38-2.63-2.76-4.98-6.63-4.98c-6.44,0-8.31,6.21-8.31,11.16c0,3.18,0.63,6.23,2.58,8.34c1.21,1.31,2.97,2.26,5.34,2.26
			c3.08,0,6.44-1.68,7.21-6.14c0.11-0.67,0.22-1.28,0.99-1.28c0.58,0,0.94,0.49,0.94,0.98c0,0.58-0.91,8.25-8.94,8.25
			c-2.56,0-5.12-0.76-6.88-2.78c-2.2-2.51-3.08-6.05-3.08-9.57c0-1.8,0.28-6.6,3.05-9.97c2.22-2.69,5.61-3.05,7.07-3.05
			C895.25,189.26,899.93,189.72,901.69,194.31z"/>
		<path class="st2" d="M922.23,200.29v-10c0-0.64,0.46-1.04,0.9-1.04c0.53,0,0.94,0.46,0.94,1.04v23.29c0,0.61-0.44,1.04-0.91,1.04
			c-0.49,0-0.93-0.4-0.93-1.04V202.1h-13.45v11.49c0,0.64-0.46,1.04-0.91,1.04c-0.52,0-0.94-0.46-0.94-1.04V190.3
			c0-0.61,0.44-1.04,0.91-1.04c0.5,0,0.93,0.4,0.93,1.04v10H922.23z"/>
		<path class="st2" d="M949.21,201.94c0,5.2-2.54,12.68-10.21,12.68c-7.59,0-10.21-7.4-10.21-12.68c0-5.07,2.48-12.68,10.21-12.68
			C946.78,189.26,949.21,196.93,949.21,201.94z M933.08,193.97c-1.68,2.32-2.45,5.35-2.45,7.98c0,4.04,1.92,10.88,8.36,10.88
			c6.55,0,8.36-7.03,8.36-10.88c0-3.91-1.84-10.88-8.36-10.88C937.32,191.06,934.68,191.71,933.08,193.97z"/>
		<path class="st2" d="M973.4,201.94c0,5.2-2.53,12.68-10.2,12.68c-7.59,0-10.2-7.4-10.2-12.68c0-5.07,2.48-12.68,10.2-12.68
			C970.99,189.26,973.4,196.93,973.4,201.94z M957.29,193.97c-1.68,2.32-2.45,5.35-2.45,7.98c0,4.04,1.92,10.88,8.36,10.88
			c6.55,0,8.37-7.03,8.37-10.88c0-3.91-1.84-10.88-8.37-10.88C961.52,191.06,958.88,191.71,957.29,193.97z"/>
		<path class="st2" d="M979.97,210.26c0,1.32,0.55,1.92,1.73,1.92h8.53c0.5,0,0.82,0.46,0.82,0.89c0,0.49-0.33,0.92-0.82,0.92h-8.58
			c-2.7,0-3.52-1.01-3.52-3.91V190.3c0-0.61,0.44-1.04,0.9-1.04c0.5,0,0.94,0.4,0.94,1.04V210.26z"/>
		<path class="st2" d="M1009.29,196.11c0,0.98-0.6,1.16-0.91,1.16c-0.88,0-0.93-0.89-0.96-1.34c-0.28-4.22-3.28-4.86-5.62-4.86
			c-1.43,0-3.35,0.21-4.56,1.41c-0.41,0.43-1.18,1.31-1.18,3.05c0,3.03,2.26,3.76,6.3,4.96c5.34,1.62,7.65,3.21,7.65,7.09
			c0,4.65-3.88,7.06-8.03,7.06c-2.8,0-5.69-0.95-7.23-3.54c-1.02-1.68-1.07-3.61-1.07-3.79c0-0.98,0.66-1.16,0.94-1.16
			c0.9,0,0.93,0.86,0.96,1.5c0.2,4.37,4.51,5.2,6.28,5.2c3.11,0,6.32-1.84,6.32-5.2c0-3.15-2.72-4-5.91-4.98
			c-5.23-1.65-8.03-2.66-8.03-6.85c0-3.15,1.98-6.54,7.43-6.54C1009.29,189.26,1009.29,195.89,1009.29,196.11z"/>
	</g>
</g>
<g>
</g>
<g>
</g>
<g>
</g>
<g>
</g>
<g>
</g>
<g>
</g>
<g>
</g>
<g>
</g>
<g>
</g>
<g>
</g>
<g>
</g>
<g>
</g>
<g>
</g>
<g>
</g>
<g>
</g>
</svg>
